<svg xmlns="http://www.w3.org/2000/svg" viewBox="0 0 540 400" width="540" height="400" role="img" font-family="'Segoe UI', system-ui, -apple-system, sans-serif"><title>Monthly rainfall at Warrigal Creek Public School</title><rect x="0" y="0" width="540" height="400" fill="#ffffff" /><text x="270" y="24" text-anchor="middle" font-size="14" font-weight="700" fill="#1f2933">Monthly rainfall at Warrigal Creek Public School</text><line x1="56" y1="346" x2="520" y2="346" stroke="#d7dee7" stroke-width="1" /><text x="48" y="346" text-anchor="end" dominant-baseline="middle" font-size="11" fill="#52606d">0</text><line x1="56" y1="296.33" x2="520" y2="296.33" stroke="#d7dee7" stroke-width="1" /><text x="48" y="296.33" text-anchor="end" dominant-baseline="middle" font-size="11" fill="#52606d">20</text><line x1="56" y1="246.67" x2="520" y2="246.67" stroke="#d7dee7" stroke-width="1" /><text x="48" y="246.67" text-anchor="end" dominant-baseline="middle" font-size="11" fill="#52606d">40</text><line x1="56" y1="197" x2="520" y2="197" stroke="#d7dee7" stroke-width="1" /><text x="48" y="197" text-anchor="end" dominant-baseline="middle" font-size="11" fill="#52606d">60</text><line x1="56" y1="147.33" x2="520" y2="147.33" stroke="#d7dee7" stroke-width="1" /><text x="48" y="147.33" text-anchor="end" dominant-baseline="middle" font-size="11" fill="#52606d">80</text><line x1="56" y1="97.67" x2="520" y2="97.67" stroke="#d7dee7" stroke-width="1" /><text x="48" y="97.67" text-anchor="end" dominant-baseline="middle" font-size="11" fill="#52606d">100</text><line x1="56" y1="48" x2="520" y2="48" stroke="#d7dee7" stroke-width="1" /><text x="48" y="48" text-anchor="end" dominant-baseline="middle" font-size="11" fill="#52606d">120</text><line x1="56" y1="48" x2="56" y2="346" stroke="#7b8794" stroke-width="1.75" /><line x1="56" y1="346" x2="520" y2="346" stroke="#7b8794" stroke-width="1.75" /><rect x="73.01" y="122.5" width="43.31" height="223.5" fill="#3b82f6" stroke="#1f2933" stroke-width="1" rx="2" /><text x="94.67" y="116.5" text-anchor="middle" font-size="11" font-weight="600" fill="#1f2933">90</text><text x="94.67" y="364" text-anchor="middle" font-size="11" fill="#52606d">Jan</text><rect x="150.35" y="172.17" width="43.31" height="173.83" fill="#3b82f6" stroke="#1f2933" stroke-width="1" rx="2" /><text x="172" y="166.17" text-anchor="middle" font-size="11" font-weight="600" fill="#1f2933">70</text><text x="172" y="364" text-anchor="middle" font-size="11" fill="#52606d">Feb</text><rect x="227.68" y="72.83" width="43.31" height="273.17" fill="#3b82f6" stroke="#1f2933" stroke-width="1" rx="2" /><text x="249.33" y="66.83" text-anchor="middle" font-size="11" font-weight="600" fill="#1f2933">110</text><text x="249.33" y="364" text-anchor="middle" font-size="11" fill="#52606d">Mar</text><rect x="305.01" y="246.67" width="43.31" height="99.33" fill="#3b82f6" stroke="#1f2933" stroke-width="1" rx="2" /><text x="326.67" y="240.67" text-anchor="middle" font-size="11" font-weight="600" fill="#1f2933">40</text><text x="326.67" y="364" text-anchor="middle" font-size="11" fill="#52606d">Apr</text><rect x="382.35" y="197" width="43.31" height="149" fill="#3b82f6" stroke="#1f2933" stroke-width="1" rx="2" /><text x="404" y="191" text-anchor="middle" font-size="11" font-weight="600" fill="#1f2933">60</text><text x="404" y="364" text-anchor="middle" font-size="11" fill="#52606d">May</text><rect x="459.68" y="271.5" width="43.31" height="74.5" fill="#3b82f6" stroke="#1f2933" stroke-width="1" rx="2" /><text x="481.33" y="265.5" text-anchor="middle" font-size="11" font-weight="600" fill="#1f2933">30</text><text x="481.33" y="364" text-anchor="middle" font-size="11" fill="#52606d">Jun</text><text x="16" y="197" text-anchor="middle" font-size="12" fill="#52606d" transform="rotate(-90 16 197)">Rainfall (mm)</text><text x="288" y="388" text-anchor="middle" font-size="12" fill="#52606d">Month</text></svg>
