<svg xmlns="http://www.w3.org/2000/svg" viewBox="0 0 560 400" width="560" height="400" role="img" font-family="'Segoe UI', system-ui, -apple-system, sans-serif"><title>Temperature during one school day</title><rect x="0" y="0" width="560" height="400" fill="#ffffff" /><text x="280" y="24" text-anchor="middle" font-size="14" font-weight="700" fill="#1f2933">Temperature during one school day</text><line x1="56" y1="346" x2="536" y2="346" stroke="#d7dee7" stroke-width="1" /><text x="48" y="346" text-anchor="end" dominant-baseline="middle" font-size="11" fill="#52606d">0</text><line x1="56" y1="296.33" x2="536" y2="296.33" stroke="#d7dee7" stroke-width="1" /><text x="48" y="296.33" text-anchor="end" dominant-baseline="middle" font-size="11" fill="#52606d">5</text><line x1="56" y1="246.67" x2="536" y2="246.67" stroke="#d7dee7" stroke-width="1" /><text x="48" y="246.67" text-anchor="end" dominant-baseline="middle" font-size="11" fill="#52606d">10</text><line x1="56" y1="197" x2="536" y2="197" stroke="#d7dee7" stroke-width="1" /><text x="48" y="197" text-anchor="end" dominant-baseline="middle" font-size="11" fill="#52606d">15</text><line x1="56" y1="147.33" x2="536" y2="147.33" stroke="#d7dee7" stroke-width="1" /><text x="48" y="147.33" text-anchor="end" dominant-baseline="middle" font-size="11" fill="#52606d">20</text><line x1="56" y1="97.67" x2="536" y2="97.67" stroke="#d7dee7" stroke-width="1" /><text x="48" y="97.67" text-anchor="end" dominant-baseline="middle" font-size="11" fill="#52606d">25</text><line x1="56" y1="48" x2="536" y2="48" stroke="#d7dee7" stroke-width="1" /><text x="48" y="48" text-anchor="end" dominant-baseline="middle" font-size="11" fill="#52606d">30</text><line x1="56" y1="48" x2="56" y2="346" stroke="#7b8794" stroke-width="1.75" /><line x1="56" y1="346" x2="536" y2="346" stroke="#7b8794" stroke-width="1.75" /><text x="56" y="364" text-anchor="middle" font-size="11" fill="#52606d">6 am</text><text x="136" y="364" text-anchor="middle" font-size="11" fill="#52606d">8 am</text><text x="216" y="364" text-anchor="middle" font-size="11" fill="#52606d">10 am</text><text x="296" y="364" text-anchor="middle" font-size="11" fill="#52606d">12 noon</text><text x="376" y="364" text-anchor="middle" font-size="11" fill="#52606d">2 pm</text><text x="456" y="364" text-anchor="middle" font-size="11" fill="#52606d">4 pm</text><text x="536" y="364" text-anchor="middle" font-size="11" fill="#52606d">6 pm</text><polyline points="56,236.73 136,216.87 216,167.2 296,127.47 376,107.6 456,147.33 536,187.07" fill="none" stroke="#2563eb" stroke-width="2.25" stroke-linejoin="round" /><circle cx="56" cy="236.73" r="3.75" fill="#2563eb" /><text x="56" y="227.73" text-anchor="middle" font-size="10.5" font-weight="600" fill="#1f2933">11</text><circle cx="136" cy="216.87" r="3.75" fill="#2563eb" /><text x="136" y="207.87" text-anchor="middle" font-size="10.5" font-weight="600" fill="#1f2933">13</text><circle cx="216" cy="167.2" r="3.75" fill="#2563eb" /><text x="216" y="158.2" text-anchor="middle" font-size="10.5" font-weight="600" fill="#1f2933">18</text><circle cx="296" cy="127.47" r="3.75" fill="#2563eb" /><text x="296" y="118.47" text-anchor="middle" font-size="10.5" font-weight="600" fill="#1f2933">22</text><circle cx="376" cy="107.6" r="3.75" fill="#2563eb" /><text x="376" y="98.6" text-anchor="middle" font-size="10.5" font-weight="600" fill="#1f2933">24</text><circle cx="456" cy="147.33" r="3.75" fill="#2563eb" /><text x="456" y="138.33" text-anchor="middle" font-size="10.5" font-weight="600" fill="#1f2933">20</text><circle cx="536" cy="187.07" r="3.75" fill="#2563eb" /><text x="536" y="178.07" text-anchor="middle" font-size="10.5" font-weight="600" fill="#1f2933">16</text><text x="16" y="197" text-anchor="middle" font-size="12" fill="#52606d" transform="rotate(-90 16 197)">Temperature (°C)</text><text x="296" y="388" text-anchor="middle" font-size="12" fill="#52606d">Time</text></svg>
