<svg xmlns="http://www.w3.org/2000/svg" viewBox="0 0 480 420" width="480" height="420" role="img" font-family="'Segoe UI', system-ui, -apple-system, sans-serif"><title>How We Travel to School (120 students)</title><rect x="0" y="0" width="480" height="420" fill="#ffffff" /><text x="240" y="24" text-anchor="middle" font-size="14" font-weight="700" fill="#1f2933">How We Travel to School (120 students)</text><path d="M 240 227 L 240 91 A 136 136 0 0 1 357.78 295 Z" fill="#dbeafe" stroke="#1f2933" stroke-width="1.75" /><text x="376.83" y="148" text-anchor="start" dominant-baseline="middle" font-size="12" font-weight="600" fill="#1f2933">Bus</text><path d="M 240 227 L 357.78 295 A 136 136 0 0 1 172 344.78 Z" fill="#bbf7d0" stroke="#1f2933" stroke-width="1.75" /><text x="280.89" y="379.62" text-anchor="start" dominant-baseline="middle" font-size="12" font-weight="600" fill="#1f2933">Walk</text><path d="M 240 227 L 172 344.78 A 136 136 0 0 1 122.22 159 Z" fill="#fed7aa" stroke="#1f2933" stroke-width="1.75" /><text x="87.38" y="267.89" text-anchor="end" dominant-baseline="middle" font-size="12" font-weight="600" fill="#1f2933">Bike</text><path d="M 240 227 L 122.22 159 A 136 136 0 0 1 240 91 Z" fill="#e9d5ff" stroke="#1f2933" stroke-width="1.75" /><text x="161" y="90.17" text-anchor="end" dominant-baseline="middle" font-size="12" font-weight="600" fill="#1f2933">Car</text></svg>
