<svg xmlns="http://www.w3.org/2000/svg" viewBox="0 0 440 440" width="440" height="440" role="img" font-family="'Segoe UI', system-ui, -apple-system, sans-serif"><rect x="0" y="0" width="440" height="440" fill="#ffffff" /><defs><marker id="arrowhead" viewBox="0 0 10 10" refX="8" refY="5" markerWidth="7" markerHeight="7" orient="auto-start-reverse"><path d="M 0 0 L 10 5 L 0 10 z" fill="#2563eb" /></marker></defs><line x1="44" y1="44" x2="44" y2="400" stroke="#d7dee7" stroke-width="1" /><text x="44" y="416" text-anchor="middle" font-size="11" fill="#52606d">0</text><line x1="90.5" y1="44" x2="90.5" y2="400" stroke="#d7dee7" stroke-width="1" /><text x="90.5" y="416" text-anchor="middle" font-size="11" fill="#52606d">1</text><line x1="137" y1="44" x2="137" y2="400" stroke="#d7dee7" stroke-width="1" /><text x="137" y="416" text-anchor="middle" font-size="11" fill="#52606d">2</text><line x1="183.5" y1="44" x2="183.5" y2="400" stroke="#d7dee7" stroke-width="1" /><text x="183.5" y="416" text-anchor="middle" font-size="11" fill="#52606d">3</text><line x1="230" y1="44" x2="230" y2="400" stroke="#d7dee7" stroke-width="1" /><text x="230" y="416" text-anchor="middle" font-size="11" fill="#52606d">4</text><line x1="276.5" y1="44" x2="276.5" y2="400" stroke="#d7dee7" stroke-width="1" /><text x="276.5" y="416" text-anchor="middle" font-size="11" fill="#52606d">5</text><line x1="323" y1="44" x2="323" y2="400" stroke="#d7dee7" stroke-width="1" /><text x="323" y="416" text-anchor="middle" font-size="11" fill="#52606d">6</text><line x1="369.5" y1="44" x2="369.5" y2="400" stroke="#d7dee7" stroke-width="1" /><text x="369.5" y="416" text-anchor="middle" font-size="11" fill="#52606d">7</text><line x1="416" y1="44" x2="416" y2="400" stroke="#d7dee7" stroke-width="1" /><text x="416" y="416" text-anchor="middle" font-size="11" fill="#52606d">8</text><line x1="44" y1="400" x2="416" y2="400" stroke="#d7dee7" stroke-width="1" /><text x="36" y="400" text-anchor="end" dominant-baseline="middle" font-size="11" fill="#52606d">0</text><line x1="44" y1="355.5" x2="416" y2="355.5" stroke="#d7dee7" stroke-width="1" /><text x="36" y="355.5" text-anchor="end" dominant-baseline="middle" font-size="11" fill="#52606d">1</text><line x1="44" y1="311" x2="416" y2="311" stroke="#d7dee7" stroke-width="1" /><text x="36" y="311" text-anchor="end" dominant-baseline="middle" font-size="11" fill="#52606d">2</text><line x1="44" y1="266.5" x2="416" y2="266.5" stroke="#d7dee7" stroke-width="1" /><text x="36" y="266.5" text-anchor="end" dominant-baseline="middle" font-size="11" fill="#52606d">3</text><line x1="44" y1="222" x2="416" y2="222" stroke="#d7dee7" stroke-width="1" /><text x="36" y="222" text-anchor="end" dominant-baseline="middle" font-size="11" fill="#52606d">4</text><line x1="44" y1="177.5" x2="416" y2="177.5" stroke="#d7dee7" stroke-width="1" /><text x="36" y="177.5" text-anchor="end" dominant-baseline="middle" font-size="11" fill="#52606d">5</text><line x1="44" y1="133" x2="416" y2="133" stroke="#d7dee7" stroke-width="1" /><text x="36" y="133" text-anchor="end" dominant-baseline="middle" font-size="11" fill="#52606d">6</text><line x1="44" y1="88.5" x2="416" y2="88.5" stroke="#d7dee7" stroke-width="1" /><text x="36" y="88.5" text-anchor="end" dominant-baseline="middle" font-size="11" fill="#52606d">7</text><line x1="44" y1="44" x2="416" y2="44" stroke="#d7dee7" stroke-width="1" /><text x="36" y="44" text-anchor="end" dominant-baseline="middle" font-size="11" fill="#52606d">8</text><line x1="44" y1="400" x2="416" y2="400" stroke="#7b8794" stroke-width="1.75" /><line x1="44" y1="44" x2="44" y2="400" stroke="#7b8794" stroke-width="1.75" /><g><polygon points="90.5,355.5 90.5,222 183.5,355.5" fill="none" stroke="#1f2933" stroke-width="2" stroke-linejoin="round" /><path d="M 102.5 355.5 L 102.5 343.5 L 90.5 343.5" fill="none" stroke="#1f2933" stroke-width="1.5" /><circle cx="90.5" cy="355.5" r="3.5" fill="#1f2933" /><text x="81.62" y="368.81" text-anchor="middle" dominant-baseline="middle" font-size="13" font-weight="600" fill="#1f2933">P</text><circle cx="90.5" cy="222" r="3.5" fill="#1f2933" /><text x="85.44" y="206.82" text-anchor="middle" dominant-baseline="middle" font-size="13" font-weight="600" fill="#1f2933">Q</text><circle cx="183.5" cy="355.5" r="3.5" fill="#1f2933" /><text x="196.3" y="365.1" text-anchor="middle" dominant-baseline="middle" font-size="13" font-weight="600" fill="#1f2933">R</text></g><g><line x1="155.6" y1="302.1" x2="341.6" y2="213.1" stroke="#2563eb" stroke-width="2.25" stroke-dasharray="7 5" marker-end="url(#arrowhead)" /><text x="248.6" y="249.6" text-anchor="middle" font-size="12" font-weight="600" fill="#2563eb">slide 4 right, 2 up</text></g></svg>
