<svg xmlns="http://www.w3.org/2000/svg" viewBox="0 0 460 460" width="460" height="460" role="img" font-family="'Segoe UI', system-ui, -apple-system, sans-serif"><rect x="0" y="0" width="460" height="460" fill="#ffffff" /><defs><marker id="arrowhead" viewBox="0 0 10 10" refX="8" refY="5" markerWidth="7" markerHeight="7" orient="auto-start-reverse"><path d="M 0 0 L 10 5 L 0 10 z" fill="#2563eb" /></marker></defs><line x1="44" y1="44" x2="44" y2="420" stroke="#d7dee7" stroke-width="1" /><text x="44" y="436" text-anchor="middle" font-size="11" fill="#52606d">0</text><line x1="83.2" y1="44" x2="83.2" y2="420" stroke="#d7dee7" stroke-width="1" /><text x="83.2" y="436" text-anchor="middle" font-size="11" fill="#52606d">1</text><line x1="122.4" y1="44" x2="122.4" y2="420" stroke="#d7dee7" stroke-width="1" /><text x="122.4" y="436" text-anchor="middle" font-size="11" fill="#52606d">2</text><line x1="161.6" y1="44" x2="161.6" y2="420" stroke="#d7dee7" stroke-width="1" /><text x="161.6" y="436" text-anchor="middle" font-size="11" fill="#52606d">3</text><line x1="200.8" y1="44" x2="200.8" y2="420" stroke="#d7dee7" stroke-width="1" /><text x="200.8" y="436" text-anchor="middle" font-size="11" fill="#52606d">4</text><line x1="240" y1="44" x2="240" y2="420" stroke="#d7dee7" stroke-width="1" /><text x="240" y="436" text-anchor="middle" font-size="11" fill="#52606d">5</text><line x1="279.2" y1="44" x2="279.2" y2="420" stroke="#d7dee7" stroke-width="1" /><text x="279.2" y="436" text-anchor="middle" font-size="11" fill="#52606d">6</text><line x1="318.4" y1="44" x2="318.4" y2="420" stroke="#d7dee7" stroke-width="1" /><text x="318.4" y="436" text-anchor="middle" font-size="11" fill="#52606d">7</text><line x1="357.6" y1="44" x2="357.6" y2="420" stroke="#d7dee7" stroke-width="1" /><text x="357.6" y="436" text-anchor="middle" font-size="11" fill="#52606d">8</text><line x1="396.8" y1="44" x2="396.8" y2="420" stroke="#d7dee7" stroke-width="1" /><text x="396.8" y="436" text-anchor="middle" font-size="11" fill="#52606d">9</text><line x1="436" y1="44" x2="436" y2="420" stroke="#d7dee7" stroke-width="1" /><text x="436" y="436" text-anchor="middle" font-size="11" fill="#52606d">10</text><line x1="44" y1="420" x2="436" y2="420" stroke="#d7dee7" stroke-width="1" /><text x="36" y="420" text-anchor="end" dominant-baseline="middle" font-size="11" fill="#52606d">0</text><line x1="44" y1="382.4" x2="436" y2="382.4" stroke="#d7dee7" stroke-width="1" /><text x="36" y="382.4" text-anchor="end" dominant-baseline="middle" font-size="11" fill="#52606d">1</text><line x1="44" y1="344.8" x2="436" y2="344.8" stroke="#d7dee7" stroke-width="1" /><text x="36" y="344.8" text-anchor="end" dominant-baseline="middle" font-size="11" fill="#52606d">2</text><line x1="44" y1="307.2" x2="436" y2="307.2" stroke="#d7dee7" stroke-width="1" /><text x="36" y="307.2" text-anchor="end" dominant-baseline="middle" font-size="11" fill="#52606d">3</text><line x1="44" y1="269.6" x2="436" y2="269.6" stroke="#d7dee7" stroke-width="1" /><text x="36" y="269.6" text-anchor="end" dominant-baseline="middle" font-size="11" fill="#52606d">4</text><line x1="44" y1="232" x2="436" y2="232" stroke="#d7dee7" stroke-width="1" /><text x="36" y="232" text-anchor="end" dominant-baseline="middle" font-size="11" fill="#52606d">5</text><line x1="44" y1="194.4" x2="436" y2="194.4" stroke="#d7dee7" stroke-width="1" /><text x="36" y="194.4" text-anchor="end" dominant-baseline="middle" font-size="11" fill="#52606d">6</text><line x1="44" y1="156.8" x2="436" y2="156.8" stroke="#d7dee7" stroke-width="1" /><text x="36" y="156.8" text-anchor="end" dominant-baseline="middle" font-size="11" fill="#52606d">7</text><line x1="44" y1="119.2" x2="436" y2="119.2" stroke="#d7dee7" stroke-width="1" /><text x="36" y="119.2" text-anchor="end" dominant-baseline="middle" font-size="11" fill="#52606d">8</text><line x1="44" y1="81.6" x2="436" y2="81.6" stroke="#d7dee7" stroke-width="1" /><text x="36" y="81.6" text-anchor="end" dominant-baseline="middle" font-size="11" fill="#52606d">9</text><line x1="44" y1="44" x2="436" y2="44" stroke="#d7dee7" stroke-width="1" /><text x="36" y="44" text-anchor="end" dominant-baseline="middle" font-size="11" fill="#52606d">10</text><line x1="44" y1="420" x2="436" y2="420" stroke="#7b8794" stroke-width="1.75" /><line x1="44" y1="44" x2="44" y2="420" stroke="#7b8794" stroke-width="1.75" /><g><polygon points="161.6,344.8 200.8,326 200.8,337.28 232.16,337.28 232.16,352.32 200.8,352.32 200.8,363.6" fill="none" stroke="#1f2933" stroke-width="2" stroke-linejoin="round" /><circle cx="161.6" cy="344.8" r="3.5" fill="#1f2933" /><circle cx="200.8" cy="326" r="3.5" fill="#1f2933" /><circle cx="200.8" cy="337.28" r="3.5" fill="#1f2933" /><circle cx="232.16" cy="337.28" r="3.5" fill="#1f2933" /><circle cx="232.16" cy="352.32" r="3.5" fill="#1f2933" /><circle cx="200.8" cy="352.32" r="3.5" fill="#1f2933" /><circle cx="200.8" cy="363.6" r="3.5" fill="#1f2933" /></g><g><circle cx="161.6" cy="344.8" r="4" fill="#1f2933" /><text x="169.6" y="336.8" text-anchor="start" font-size="13" font-weight="600" fill="#1f2933">(3, 2)</text></g><g><line x1="240" y1="44" x2="240" y2="420" stroke="#2563eb" stroke-width="2" stroke-dasharray="7 5" /><text x="240" y="36" text-anchor="middle" font-size="12" font-weight="600" fill="#2563eb">mirror line x = 5</text></g></svg>
