<svg xmlns="http://www.w3.org/2000/svg" viewBox="0 0 460 420" width="460" height="420" role="img" font-family="'Segoe UI', system-ui, -apple-system, sans-serif"><title>Favourite Sport</title><rect x="0" y="0" width="460" height="420" fill="#ffffff" /><text x="230" y="24" text-anchor="middle" font-size="14" font-weight="700" fill="#1f2933">Favourite Sport</text><path d="M 230 227 L 230 91 A 136 136 0 0 1 230 363 Z" fill="#dbeafe" stroke="#1f2933" stroke-width="1.75" /><text x="388" y="227" text-anchor="start" dominant-baseline="middle" font-size="12" font-weight="600" fill="#1f2933">Soccer</text><path d="M 230 227 L 230 363 A 136 136 0 0 1 94 227 Z" fill="#bbf7d0" stroke="#1f2933" stroke-width="1.75" /><text x="118.28" y="338.72" text-anchor="end" dominant-baseline="middle" font-size="12" font-weight="600" fill="#1f2933">Basketball</text><path d="M 230 227 L 94 227 A 136 136 0 0 1 133.83 130.83 Z" fill="#fed7aa" stroke="#1f2933" stroke-width="1.75" /><text x="84.03" y="166.54" text-anchor="end" dominant-baseline="middle" font-size="12" font-weight="600" fill="#1f2933">Netball</text><path d="M 230 227 L 133.83 130.83 A 136 136 0 0 1 230 91 Z" fill="#e9d5ff" stroke="#1f2933" stroke-width="1.75" /><text x="169.54" y="81.03" text-anchor="end" dominant-baseline="middle" font-size="12" font-weight="600" fill="#1f2933">Cricket</text></svg>
