<svg xmlns="http://www.w3.org/2000/svg" viewBox="0 0 322 322" width="322" height="322" role="img" font-family="'Segoe UI', system-ui, -apple-system, sans-serif"><rect x="0" y="0" width="322" height="322" fill="#ffffff" /><rect x="20" y="20" width="60" height="60" fill="#ffffff" stroke="#d7dee7" stroke-width="1.5" rx="6" /><circle cx="50" cy="50" r="11.22" fill="none" stroke="#1f2933" stroke-width="2" stroke-linejoin="round" /><rect x="94" y="20" width="60" height="60" fill="#ffffff" stroke="#d7dee7" stroke-width="1.5" rx="6" /><rect x="112.78" y="38.78" width="22.44" height="22.44" fill="none" stroke="#1f2933" stroke-width="2" stroke-linejoin="round" rx="2" /><rect x="168" y="20" width="60" height="60" fill="#ffffff" stroke="#d7dee7" stroke-width="1.5" rx="6" /><circle cx="198" cy="50" r="11.22" fill="none" stroke="#1f2933" stroke-width="2" stroke-linejoin="round" /><rect x="242" y="20" width="60" height="60" fill="#ffffff" stroke="#d7dee7" stroke-width="1.5" rx="6" /><rect x="260.78" y="38.78" width="22.44" height="22.44" fill="none" stroke="#1f2933" stroke-width="2" stroke-linejoin="round" rx="2" /><rect x="20" y="94" width="60" height="60" fill="#ffffff" stroke="#d7dee7" stroke-width="1.5" rx="6" /><polygon points="50,112.78 61.22,135.22 38.78,135.22" fill="none" stroke="#1f2933" stroke-width="2" stroke-linejoin="round" /><rect x="94" y="94" width="60" height="60" fill="#ffffff" stroke="#d7dee7" stroke-width="1.5" rx="6" /><polygon points="124,112.78 135.22,124 124,135.22 112.78,124" fill="none" stroke="#1f2933" stroke-width="2" stroke-linejoin="round" /><rect x="168" y="94" width="60" height="60" fill="#ffffff" stroke="#d7dee7" stroke-width="1.5" rx="6" /><polygon points="198,112.78 209.22,135.22 186.78,135.22" fill="none" stroke="#1f2933" stroke-width="2" stroke-linejoin="round" /><rect x="242" y="94" width="60" height="60" fill="#ffffff" stroke="#d7dee7" stroke-width="1.5" rx="6" /><polygon points="272,112.78 283.22,124 272,135.22 260.78,124" fill="none" stroke="#1f2933" stroke-width="2" stroke-linejoin="round" /><rect x="20" y="168" width="60" height="60" fill="#ffffff" stroke="#d7dee7" stroke-width="1.5" rx="6" /><circle cx="50" cy="198" r="11.22" fill="none" stroke="#1f2933" stroke-width="2" stroke-linejoin="round" /><rect x="94" y="168" width="60" height="60" fill="#eef2ff" stroke="#2563eb" stroke-width="2" stroke-dasharray="6 4" rx="6" /><text x="124" y="198" text-anchor="middle" dominant-baseline="middle" font-size="25.2" font-weight="700" fill="#2563eb">?</text><rect x="168" y="168" width="60" height="60" fill="#ffffff" stroke="#d7dee7" stroke-width="1.5" rx="6" /><circle cx="198" cy="198" r="11.22" fill="none" stroke="#1f2933" stroke-width="2" stroke-linejoin="round" /><rect x="242" y="168" width="60" height="60" fill="#ffffff" stroke="#d7dee7" stroke-width="1.5" rx="6" /><rect x="260.78" y="186.78" width="22.44" height="22.44" fill="none" stroke="#1f2933" stroke-width="2" stroke-linejoin="round" rx="2" /><rect x="20" y="242" width="60" height="60" fill="#ffffff" stroke="#d7dee7" stroke-width="1.5" rx="6" /><polygon points="50,260.78 61.22,283.22 38.78,283.22" fill="none" stroke="#1f2933" stroke-width="2" stroke-linejoin="round" /><rect x="94" y="242" width="60" height="60" fill="#ffffff" stroke="#d7dee7" stroke-width="1.5" rx="6" /><polygon points="124,260.78 135.22,272 124,283.22 112.78,272" fill="none" stroke="#1f2933" stroke-width="2" stroke-linejoin="round" /><rect x="168" y="242" width="60" height="60" fill="#ffffff" stroke="#d7dee7" stroke-width="1.5" rx="6" /><polygon points="198,260.78 209.22,283.22 186.78,283.22" fill="none" stroke="#1f2933" stroke-width="2" stroke-linejoin="round" /><rect x="242" y="242" width="60" height="60" fill="#ffffff" stroke="#d7dee7" stroke-width="1.5" rx="6" /><polygon points="272,260.78 283.22,272 272,283.22 260.78,272" fill="none" stroke="#1f2933" stroke-width="2" stroke-linejoin="round" /></svg>
