<svg xmlns="http://www.w3.org/2000/svg" viewBox="0 0 302 302" width="302" height="302" role="img" font-family="'Segoe UI', system-ui, -apple-system, sans-serif"><rect x="0" y="0" width="302" height="302" fill="#ffffff" /><rect x="20" y="20" width="78" height="78" fill="#ffffff" stroke="#d7dee7" stroke-width="1.5" rx="6" /><circle cx="59" cy="59" r="13.26" fill="none" stroke="#1f2933" stroke-width="2" stroke-linejoin="round" /><rect x="112" y="20" width="78" height="78" fill="#ffffff" stroke="#d7dee7" stroke-width="1.5" rx="6" /><circle cx="151" cy="59" r="19.89" fill="none" stroke="#1f2933" stroke-width="2" stroke-linejoin="round" /><rect x="204" y="20" width="78" height="78" fill="#ffffff" stroke="#d7dee7" stroke-width="1.5" rx="6" /><circle cx="243" cy="59" r="26.52" fill="none" stroke="#1f2933" stroke-width="2" stroke-linejoin="round" /><rect x="20" y="112" width="78" height="78" fill="#ffffff" stroke="#d7dee7" stroke-width="1.5" rx="6" /><rect x="45.74" y="137.74" width="26.52" height="26.52" fill="none" stroke="#1f2933" stroke-width="2" stroke-linejoin="round" rx="2" /><rect x="112" y="112" width="78" height="78" fill="#ffffff" stroke="#d7dee7" stroke-width="1.5" rx="6" /><rect x="131.11" y="131.11" width="39.78" height="39.78" fill="none" stroke="#1f2933" stroke-width="2" stroke-linejoin="round" rx="2" /><rect x="204" y="112" width="78" height="78" fill="#ffffff" stroke="#d7dee7" stroke-width="1.5" rx="6" /><rect x="216.48" y="124.48" width="53.04" height="53.04" fill="none" stroke="#1f2933" stroke-width="2" stroke-linejoin="round" rx="2" /><rect x="20" y="204" width="78" height="78" fill="#ffffff" stroke="#d7dee7" stroke-width="1.5" rx="6" /><polygon points="59,229.74 72.26,256.26 45.74,256.26" fill="none" stroke="#1f2933" stroke-width="2" stroke-linejoin="round" /><rect x="112" y="204" width="78" height="78" fill="#ffffff" stroke="#d7dee7" stroke-width="1.5" rx="6" /><polygon points="151,223.11 170.89,262.89 131.11,262.89" fill="none" stroke="#1f2933" stroke-width="2" stroke-linejoin="round" /><rect x="204" y="204" width="78" height="78" fill="#eef2ff" stroke="#2563eb" stroke-width="2" stroke-dasharray="6 4" rx="6" /><text x="243" y="243" text-anchor="middle" dominant-baseline="middle" font-size="32.76" font-weight="700" fill="#2563eb">?</text></svg>
