<svg xmlns="http://www.w3.org/2000/svg" viewBox="0 0 430 124" width="430" height="124" role="img" font-family="'Segoe UI', system-ui, -apple-system, sans-serif"><rect x="0" y="0" width="430" height="124" fill="#ffffff" /><rect x="20" y="20" width="84" height="84" fill="#ffffff" stroke="#d7dee7" stroke-width="1.5" rx="6" /><path d="M 42.01 62 L 68 62 M 81.99 62 L 66 50 M 81.99 62 L 66 74" fill="none" stroke="#1f2933" stroke-width="2.5" stroke-linecap="round" /><rect x="122" y="20" width="84" height="84" fill="#ffffff" stroke="#d7dee7" stroke-width="1.5" rx="6" /><g transform="rotate(90 164 62)"><path d="M 144.01 62 L 170 62 M 183.99 62 L 168 50 M 183.99 62 L 168 74" fill="none" stroke="#1f2933" stroke-width="2.5" stroke-linecap="round" /></g><rect x="224" y="20" width="84" height="84" fill="#ffffff" stroke="#d7dee7" stroke-width="1.5" rx="6" /><g transform="rotate(180 266 62)"><path d="M 246.01 62 L 272 62 M 285.99 62 L 270 50 M 285.99 62 L 270 74" fill="none" stroke="#1f2933" stroke-width="2.5" stroke-linecap="round" /></g><rect x="326" y="20" width="84" height="84" fill="#eef2ff" stroke="#2563eb" stroke-width="2" stroke-dasharray="6 4" rx="6" /><text x="368" y="62" text-anchor="middle" dominant-baseline="middle" font-size="35.28" font-weight="700" fill="#2563eb">?</text></svg>
