<svg xmlns="http://www.w3.org/2000/svg" viewBox="0 0 200 190" width="200" height="190" role="img" font-family="'Segoe UI', system-ui, -apple-system, sans-serif"><rect x="0" y="0" width="200" height="190" fill="#ffffff" /><polygon points="100,125 76,137 76,109 100,97" fill="#f3f4f6" stroke="#1f2933" stroke-width="1.5" stroke-linejoin="round" /><polygon points="76,113 100,125 100,97 76,85" fill="#ffffff" stroke="#1f2933" stroke-width="1.5" stroke-linejoin="round" /><polygon points="76,85 100,97 76,109 52,97" fill="#e5e7eb" stroke="#1f2933" stroke-width="1.5" stroke-linejoin="round" /><polygon points="124,137 100,149 100,121 124,109" fill="#f3f4f6" stroke="#1f2933" stroke-width="1.5" stroke-linejoin="round" /><polygon points="100,125 124,137 124,109 100,97" fill="#ffffff" stroke="#1f2933" stroke-width="1.5" stroke-linejoin="round" /><polygon points="100,97 124,109 100,121 76,109" fill="#e5e7eb" stroke="#1f2933" stroke-width="1.5" stroke-linejoin="round" /><polygon points="148,149 124,161 124,133 148,121" fill="#f3f4f6" stroke="#1f2933" stroke-width="1.5" stroke-linejoin="round" /><polygon points="124,137 148,149 148,121 124,109" fill="#ffffff" stroke="#1f2933" stroke-width="1.5" stroke-linejoin="round" /><polygon points="124,109 148,121 124,133 100,121" fill="#e5e7eb" stroke="#1f2933" stroke-width="1.5" stroke-linejoin="round" /><polygon points="100,97 76,109 76,81 100,69" fill="#f3f4f6" stroke="#1f2933" stroke-width="1.5" stroke-linejoin="round" /><polygon points="76,85 100,97 100,69 76,57" fill="#ffffff" stroke="#1f2933" stroke-width="1.5" stroke-linejoin="round" /><polygon points="76,57 100,69 76,81 52,69" fill="#e5e7eb" stroke="#1f2933" stroke-width="1.5" stroke-linejoin="round" /><polygon points="148,121 124,133 124,105 148,93" fill="#f3f4f6" stroke="#1f2933" stroke-width="1.5" stroke-linejoin="round" /><polygon points="124,109 148,121 148,93 124,81" fill="#ffffff" stroke="#1f2933" stroke-width="1.5" stroke-linejoin="round" /><polygon points="124,81 148,93 124,105 100,93" fill="#e5e7eb" stroke="#1f2933" stroke-width="1.5" stroke-linejoin="round" /><polygon points="100,69 76,81 76,53 100,41" fill="#f3f4f6" stroke="#1f2933" stroke-width="1.5" stroke-linejoin="round" /><polygon points="76,57 100,69 100,41 76,29" fill="#ffffff" stroke="#1f2933" stroke-width="1.5" stroke-linejoin="round" /><polygon points="76,29 100,41 76,53 52,41" fill="#e5e7eb" stroke="#1f2933" stroke-width="1.5" stroke-linejoin="round" /></svg>
