<svg xmlns="http://www.w3.org/2000/svg" viewBox="0 0 360 278" width="360" height="278" role="img" font-family="'Segoe UI', system-ui, -apple-system, sans-serif"><rect x="0" y="0" width="360" height="278" fill="#ffffff" /><g><rect x="105" y="24" width="150" height="154" fill="#ffffff" stroke="#d7dee7" stroke-width="1.5" rx="8" /><circle cx="139" cy="55" r="17.68" fill="none" stroke="#1f2933" stroke-width="2" stroke-linejoin="round" /><path d="M 167 55 L 191 55 M 191 55 L 184 50 M 191 55 L 184 60" fill="none" stroke="#52606d" stroke-width="2" stroke-linecap="round" /><polygon points="221,37.32 225.36,48.99 237.81,49.54 228.06,57.29 231.39,69.3 221,62.43 210.61,69.3 213.94,57.29 204.19,49.54 216.64,48.99" fill="#1f2933" stroke="#1f2933" stroke-width="2" stroke-linejoin="round" /><polygon points="139,83.32 156.68,118.68 121.32,118.68" fill="none" stroke="#1f2933" stroke-width="2" stroke-linejoin="round" /><path d="M 167 101 L 191 101 M 191 101 L 184 96 M 191 101 L 184 106" fill="none" stroke="#52606d" stroke-width="2" stroke-linecap="round" /><g><line x1="203.32" y1="101" x2="238.68" y2="101" stroke="#1f2933" stroke-width="2.5" /><line x1="221" y1="83.32" x2="221" y2="118.68" stroke="#1f2933" stroke-width="2.5" /></g><rect x="121.32" y="129.32" width="35.36" height="35.36" fill="none" stroke="#1f2933" stroke-width="2" stroke-linejoin="round" rx="2" /><path d="M 167 147 L 191 147 M 191 147 L 184 142 M 191 147 L 184 152" fill="none" stroke="#52606d" stroke-width="2" stroke-linecap="round" /><circle cx="221" cy="147" r="4.24" fill="#1f2933" /></g><text x="180" y="196" text-anchor="middle" font-size="11" font-weight="600" fill="#52606d">Message</text><g><rect x="84.32" y="208.32" width="35.36" height="35.36" fill="none" stroke="#1f2933" stroke-width="2" stroke-linejoin="round" rx="2" /><polygon points="154,208.32 171.68,243.68 136.32,243.68" fill="none" stroke="#1f2933" stroke-width="2" stroke-linejoin="round" /><polygon points="206,208.32 223.68,243.68 188.32,243.68" fill="none" stroke="#1f2933" stroke-width="2" stroke-linejoin="round" /><circle cx="258" cy="226" r="17.68" fill="none" stroke="#1f2933" stroke-width="2" stroke-linejoin="round" /></g></svg>
