<svg xmlns="http://www.w3.org/2000/svg" viewBox="0 0 290 290" width="290" height="290" role="img" font-family="'Segoe UI', system-ui, -apple-system, sans-serif"><rect x="0" y="0" width="290" height="290" fill="#ffffff" /><rect x="20" y="20" width="74" height="74" fill="#ffffff" stroke="#d7dee7" stroke-width="1.5" rx="6" /><circle cx="57" cy="57" r="15.6" fill="none" stroke="#1f2933" stroke-width="2" stroke-linejoin="round" /><rect x="108" y="20" width="74" height="74" fill="#ffffff" stroke="#d7dee7" stroke-width="1.5" rx="6" /><rect x="129.4" y="41.4" width="31.2" height="31.2" fill="none" stroke="#1f2933" stroke-width="2" stroke-linejoin="round" rx="2" /><rect x="196" y="20" width="74" height="74" fill="#ffffff" stroke="#d7dee7" stroke-width="1.5" rx="6" /><polygon points="233,41.4 248.6,72.6 217.4,72.6" fill="none" stroke="#1f2933" stroke-width="2" stroke-linejoin="round" /><rect x="20" y="108" width="74" height="74" fill="#ffffff" stroke="#d7dee7" stroke-width="1.5" rx="6" /><circle cx="57" cy="145" r="15.6" fill="#1f2933" stroke="#1f2933" stroke-width="2" stroke-linejoin="round" /><rect x="108" y="108" width="74" height="74" fill="#ffffff" stroke="#d7dee7" stroke-width="1.5" rx="6" /><rect x="129.4" y="129.4" width="31.2" height="31.2" fill="#1f2933" stroke="#1f2933" stroke-width="2" stroke-linejoin="round" rx="2" /><rect x="196" y="108" width="74" height="74" fill="#eef2ff" stroke="#2563eb" stroke-width="2" stroke-dasharray="6 4" rx="6" /><text x="233" y="145" text-anchor="middle" dominant-baseline="middle" font-size="31.08" font-weight="700" fill="#2563eb">?</text><rect x="20" y="196" width="74" height="74" fill="#ffffff" stroke="#d7dee7" stroke-width="1.5" rx="6" /><circle cx="57" cy="233" r="15.6" fill="none" stroke="#1f2933" stroke-width="2" stroke-linejoin="round" /><rect x="108" y="196" width="74" height="74" fill="#ffffff" stroke="#d7dee7" stroke-width="1.5" rx="6" /><rect x="129.4" y="217.4" width="31.2" height="31.2" fill="none" stroke="#1f2933" stroke-width="2" stroke-linejoin="round" rx="2" /><rect x="196" y="196" width="74" height="74" fill="#ffffff" stroke="#d7dee7" stroke-width="1.5" rx="6" /><polygon points="233,217.4 248.6,248.6 217.4,248.6" fill="none" stroke="#1f2933" stroke-width="2" stroke-linejoin="round" /></svg>
