<svg xmlns="http://www.w3.org/2000/svg" viewBox="0 0 320 320" width="320" height="320" role="img" font-family="'Segoe UI', system-ui, -apple-system, sans-serif"><rect x="0" y="0" width="320" height="320" fill="#ffffff" /><rect x="20" y="20" width="84" height="84" fill="#ffffff" stroke="#d7dee7" stroke-width="1.5" rx="6" /><circle cx="62" cy="62" r="19.99" fill="none" stroke="#1f2933" stroke-width="2" stroke-linejoin="round" /><rect x="118" y="20" width="84" height="84" fill="#ffffff" stroke="#d7dee7" stroke-width="1.5" rx="6" /><rect x="140.01" y="42.01" width="39.98" height="39.98" fill="none" stroke="#1f2933" stroke-width="2" stroke-linejoin="round" rx="2" /><rect x="216" y="20" width="84" height="84" fill="#ffffff" stroke="#d7dee7" stroke-width="1.5" rx="6" /><rect x="230.87" y="34.87" width="54.26" height="54.26" fill="none" stroke="#1f2933" stroke-width="2" stroke-linejoin="round" rx="2" /><circle cx="258" cy="62" r="11.42" fill="none" stroke="#1f2933" stroke-width="2" stroke-linejoin="round" /><rect x="20" y="118" width="84" height="84" fill="#ffffff" stroke="#d7dee7" stroke-width="1.5" rx="6" /><polygon points="62,140.01 81.99,179.99 42.01,179.99" fill="none" stroke="#1f2933" stroke-width="2" stroke-linejoin="round" /><rect x="118" y="118" width="84" height="84" fill="#ffffff" stroke="#d7dee7" stroke-width="1.5" rx="6" /><circle cx="160" cy="160" r="19.99" fill="none" stroke="#1f2933" stroke-width="2" stroke-linejoin="round" /><rect x="216" y="118" width="84" height="84" fill="#ffffff" stroke="#d7dee7" stroke-width="1.5" rx="6" /><circle cx="258" cy="160" r="27.13" fill="none" stroke="#1f2933" stroke-width="2" stroke-linejoin="round" /><polygon points="258,148.58 269.42,171.42 246.58,171.42" fill="none" stroke="#1f2933" stroke-width="2" stroke-linejoin="round" /><rect x="20" y="216" width="84" height="84" fill="#ffffff" stroke="#d7dee7" stroke-width="1.5" rx="6" /><rect x="42.01" y="238.01" width="39.98" height="39.98" fill="none" stroke="#1f2933" stroke-width="2" stroke-linejoin="round" rx="2" /><rect x="118" y="216" width="84" height="84" fill="#ffffff" stroke="#d7dee7" stroke-width="1.5" rx="6" /><polygon points="160,238.01 179.99,277.99 140.01,277.99" fill="none" stroke="#1f2933" stroke-width="2" stroke-linejoin="round" /><rect x="216" y="216" width="84" height="84" fill="#eef2ff" stroke="#2563eb" stroke-width="2" stroke-dasharray="6 4" rx="6" /><text x="258" y="258" text-anchor="middle" dominant-baseline="middle" font-size="35.28" font-weight="700" fill="#2563eb">?</text></svg>
