<svg xmlns="http://www.w3.org/2000/svg" viewBox="0 0 200 190" width="200" height="190" role="img" font-family="'Segoe UI', system-ui, -apple-system, sans-serif"><rect x="0" y="0" width="200" height="190" fill="#ffffff" /><polygon points="100,97 76,109 76,81 100,69" fill="#f3f4f6" stroke="#1f2933" stroke-width="1.5" stroke-linejoin="round" /><polygon points="76,85 100,97 100,69 76,57" fill="#ffffff" stroke="#1f2933" stroke-width="1.5" stroke-linejoin="round" /><polygon points="76,57 100,69 76,81 52,69" fill="#e5e7eb" stroke="#1f2933" stroke-width="1.5" stroke-linejoin="round" /><polygon points="124,109 100,121 100,93 124,81" fill="#f3f4f6" stroke="#1f2933" stroke-width="1.5" stroke-linejoin="round" /><polygon points="100,97 124,109 124,81 100,69" fill="#ffffff" stroke="#1f2933" stroke-width="1.5" stroke-linejoin="round" /><polygon points="100,69 124,81 100,93 76,81" fill="#e5e7eb" stroke="#1f2933" stroke-width="1.5" stroke-linejoin="round" /><polygon points="148,121 124,133 124,105 148,93" fill="#f3f4f6" stroke="#1f2933" stroke-width="1.5" stroke-linejoin="round" /><polygon points="124,109 148,121 148,93 124,81" fill="#ffffff" stroke="#1f2933" stroke-width="1.5" stroke-linejoin="round" /><polygon points="124,81 148,93 124,105 100,93" fill="#e5e7eb" stroke="#1f2933" stroke-width="1.5" stroke-linejoin="round" /></svg>
