<svg xmlns="http://www.w3.org/2000/svg" viewBox="0 0 380 136" width="380" height="136" role="img" font-family="'Segoe UI', system-ui, -apple-system, sans-serif"><rect x="0" y="0" width="380" height="136" fill="#ffffff" /><rect x="20" y="26" width="92" height="92" fill="#ffffff" stroke="#1f2933" stroke-width="2" rx="3" /><text x="66" y="136" text-anchor="middle" font-size="10" fill="#52606d">sheet</text><path d="M 124 72 L 150 72 M 150 72 L 143 67 M 150 72 L 143 77" fill="none" stroke="#52606d" stroke-width="2" stroke-linecap="round" /><rect x="154" y="72" width="92" height="46" fill="#f8fafc" stroke="#1f2933" stroke-width="2" rx="3" /><line x1="154" y1="72" x2="246" y2="72" stroke="#2563eb" stroke-width="2" stroke-dasharray="5 4" /><text x="200" y="136" text-anchor="middle" font-size="10" fill="#52606d">folded</text><path d="M 258 72 L 284 72 M 284 72 L 277 67 M 284 72 L 277 77" fill="none" stroke="#52606d" stroke-width="2" stroke-linecap="round" /><rect x="288" y="72" width="92" height="46" fill="#f8fafc" stroke="#1f2933" stroke-width="2" rx="3" /><line x1="288" y1="72" x2="380" y2="72" stroke="#2563eb" stroke-width="2" stroke-dasharray="5 4" /><circle cx="313.76" cy="87.64" r="5.5" fill="#1f2933" /><text x="334" y="136" text-anchor="middle" font-size="10" fill="#52606d">punch</text></svg>
