<svg xmlns="http://www.w3.org/2000/svg" viewBox="0 0 220 200" width="220" height="200" role="img" font-family="'Segoe UI', system-ui, -apple-system, sans-serif"><rect x="0" y="0" width="220" height="200" fill="#ffffff" /><polygon points="110,116 86,128 86,100 110,88" fill="#f3f4f6" stroke="#1f2933" stroke-width="1.5" stroke-linejoin="round" /><polygon points="86,104 110,116 110,88 86,76" fill="#ffffff" stroke="#1f2933" stroke-width="1.5" stroke-linejoin="round" /><polygon points="86,76 110,88 86,100 62,88" fill="#e5e7eb" stroke="#1f2933" stroke-width="1.5" stroke-linejoin="round" /><polygon points="134,128 110,140 110,112 134,100" fill="#f3f4f6" stroke="#1f2933" stroke-width="1.5" stroke-linejoin="round" /><polygon points="110,116 134,128 134,100 110,88" fill="#ffffff" stroke="#1f2933" stroke-width="1.5" stroke-linejoin="round" /><polygon points="110,88 134,100 110,112 86,100" fill="#e5e7eb" stroke="#1f2933" stroke-width="1.5" stroke-linejoin="round" /><polygon points="158,140 134,152 134,124 158,112" fill="#f3f4f6" stroke="#1f2933" stroke-width="1.5" stroke-linejoin="round" /><polygon points="134,128 158,140 158,112 134,100" fill="#ffffff" stroke="#1f2933" stroke-width="1.5" stroke-linejoin="round" /><polygon points="134,100 158,112 134,124 110,112" fill="#e5e7eb" stroke="#1f2933" stroke-width="1.5" stroke-linejoin="round" /><polygon points="110,88 86,100 86,72 110,60" fill="#f3f4f6" stroke="#1f2933" stroke-width="1.5" stroke-linejoin="round" /><polygon points="86,76 110,88 110,60 86,48" fill="#ffffff" stroke="#1f2933" stroke-width="1.5" stroke-linejoin="round" /><polygon points="86,48 110,60 86,72 62,60" fill="#e5e7eb" stroke="#1f2933" stroke-width="1.5" stroke-linejoin="round" /></svg>
