<svg xmlns="http://www.w3.org/2000/svg" viewBox="0 0 406 118" width="406" height="118" role="img" font-family="'Segoe UI', system-ui, -apple-system, sans-serif"><rect x="0" y="0" width="406" height="118" fill="#ffffff" /><rect x="20" y="20" width="78" height="78" fill="#ffffff" stroke="#d7dee7" stroke-width="1.5" rx="6" /><g transform="rotate(180 46.52 59)"><path d="M 20 59 L 54.48 59 M 73.04 59 L 51.82 43.09 M 73.04 59 L 51.82 74.91" fill="none" stroke="#1f2933" stroke-width="2.5" stroke-linecap="round" /></g><circle cx="79.28" cy="59" r="13.26" fill="#1f2933" stroke="#1f2933" stroke-width="2" stroke-linejoin="round" /><rect x="116" y="20" width="78" height="78" fill="#ffffff" stroke="#d7dee7" stroke-width="1.5" rx="6" /><g transform="rotate(270 142.52 59)"><path d="M 116 59 L 150.48 59 M 169.04 59 L 147.82 43.09 M 169.04 59 L 147.82 74.91" fill="none" stroke="#1f2933" stroke-width="2.5" stroke-linecap="round" /></g><circle cx="175.28" cy="59" r="13.26" fill="none" stroke="#1f2933" stroke-width="2" stroke-linejoin="round" /><rect x="212" y="20" width="78" height="78" fill="#ffffff" stroke="#d7dee7" stroke-width="1.5" rx="6" /><path d="M 212 59 L 246.48 59 M 265.04 59 L 243.82 43.09 M 265.04 59 L 243.82 74.91" fill="none" stroke="#1f2933" stroke-width="2.5" stroke-linecap="round" /><circle cx="271.28" cy="59" r="13.26" fill="#1f2933" stroke="#1f2933" stroke-width="2" stroke-linejoin="round" /><rect x="308" y="20" width="78" height="78" fill="#eef2ff" stroke="#2563eb" stroke-width="2" stroke-dasharray="6 4" rx="6" /><text x="347" y="59" text-anchor="middle" dominant-baseline="middle" font-size="32.76" font-weight="700" fill="#2563eb">?</text></svg>
