<svg xmlns="http://www.w3.org/2000/svg" viewBox="0 0 220 200" width="220" height="200" role="img" font-family="'Segoe UI', system-ui, -apple-system, sans-serif"><rect x="0" y="0" width="220" height="200" fill="#ffffff" /><polygon points="98,114 74,126 74,98 98,86" fill="#f3f4f6" stroke="#1f2933" stroke-width="1.5" stroke-linejoin="round" /><polygon points="74,102 98,114 98,86 74,74" fill="#ffffff" stroke="#1f2933" stroke-width="1.5" stroke-linejoin="round" /><polygon points="74,74 98,86 74,98 50,86" fill="#e5e7eb" stroke="#1f2933" stroke-width="1.5" stroke-linejoin="round" /><polygon points="122,102 98,114 98,86 122,74" fill="#f3f4f6" stroke="#1f2933" stroke-width="1.5" stroke-linejoin="round" /><polygon points="98,90 122,102 122,74 98,62" fill="#ffffff" stroke="#1f2933" stroke-width="1.5" stroke-linejoin="round" /><polygon points="98,62 122,74 98,86 74,74" fill="#e5e7eb" stroke="#1f2933" stroke-width="1.5" stroke-linejoin="round" /><polygon points="146,114 122,126 122,98 146,86" fill="#f3f4f6" stroke="#1f2933" stroke-width="1.5" stroke-linejoin="round" /><polygon points="122,102 146,114 146,86 122,74" fill="#ffffff" stroke="#1f2933" stroke-width="1.5" stroke-linejoin="round" /><polygon points="122,74 146,86 122,98 98,86" fill="#e5e7eb" stroke="#1f2933" stroke-width="1.5" stroke-linejoin="round" /><polygon points="170,126 146,138 146,110 170,98" fill="#f3f4f6" stroke="#1f2933" stroke-width="1.5" stroke-linejoin="round" /><polygon points="146,114 170,126 170,98 146,86" fill="#ffffff" stroke="#1f2933" stroke-width="1.5" stroke-linejoin="round" /><polygon points="146,86 170,98 146,110 122,98" fill="#e5e7eb" stroke="#1f2933" stroke-width="1.5" stroke-linejoin="round" /></svg>
