<svg xmlns="http://www.w3.org/2000/svg" viewBox="0 0 482 144" width="482" height="144" role="img" font-family="'Segoe UI', system-ui, -apple-system, sans-serif"><title>What comes next?</title><rect x="0" y="0" width="482" height="144" fill="#ffffff" /><text x="241" y="20" text-anchor="middle" font-size="13" font-weight="700" fill="#1f2933">What comes next?</text><rect x="20" y="50" width="74" height="74" fill="#ffffff" stroke="#d7dee7" stroke-width="1.5" rx="6" /><rect x="31.84" y="61.84" width="50.32" height="50.32" fill="none" stroke="#1f2933" stroke-width="2" stroke-linejoin="round" rx="2" /><circle cx="57" cy="87" r="6.04" fill="#1f2933" /><rect x="112" y="50" width="74" height="74" fill="#ffffff" stroke="#d7dee7" stroke-width="1.5" rx="6" /><rect x="123.84" y="61.84" width="50.32" height="50.32" fill="none" stroke="#1f2933" stroke-width="2" stroke-linejoin="round" rx="2" /><circle cx="138.94" cy="87" r="6.04" fill="#1f2933" /><circle cx="159.06" cy="87" r="6.04" fill="#1f2933" /><rect x="204" y="50" width="74" height="74" fill="#ffffff" stroke="#d7dee7" stroke-width="1.5" rx="6" /><rect x="215.84" y="61.84" width="50.32" height="50.32" fill="none" stroke="#1f2933" stroke-width="2" stroke-linejoin="round" rx="2" /><circle cx="241" cy="75.68" r="6.04" fill="#1f2933" /><circle cx="229.68" cy="95.81" r="6.04" fill="#1f2933" /><circle cx="252.32" cy="95.81" r="6.04" fill="#1f2933" /><rect x="296" y="50" width="74" height="74" fill="#ffffff" stroke="#d7dee7" stroke-width="1.5" rx="6" /><rect x="307.84" y="61.84" width="50.32" height="50.32" fill="none" stroke="#1f2933" stroke-width="2" stroke-linejoin="round" rx="2" /><circle cx="322.94" cy="76.94" r="6.04" fill="#1f2933" /><circle cx="343.06" cy="76.94" r="6.04" fill="#1f2933" /><circle cx="322.94" cy="97.06" r="6.04" fill="#1f2933" /><circle cx="343.06" cy="97.06" r="6.04" fill="#1f2933" /><rect x="388" y="50" width="74" height="74" fill="#eef2ff" stroke="#2563eb" stroke-width="2" stroke-dasharray="6 4" rx="6" /><text x="425" y="87" text-anchor="middle" dominant-baseline="middle" font-size="31.08" font-weight="700" fill="#2563eb">?</text></svg>
