<svg xmlns="http://www.w3.org/2000/svg" viewBox="0 0 220 200" width="220" height="200" role="img" font-family="'Segoe UI', system-ui, -apple-system, sans-serif"><rect x="0" y="0" width="220" height="200" fill="#ffffff" /><polygon points="110,102 86,114 86,86 110,74" fill="#f3f4f6" stroke="#1f2933" stroke-width="1.5" stroke-linejoin="round" /><polygon points="86,90 110,102 110,74 86,62" fill="#ffffff" stroke="#1f2933" stroke-width="1.5" stroke-linejoin="round" /><polygon points="86,62 110,74 86,86 62,74" fill="#e5e7eb" stroke="#1f2933" stroke-width="1.5" stroke-linejoin="round" /><polygon points="134,114 110,126 110,98 134,86" fill="#f3f4f6" stroke="#1f2933" stroke-width="1.5" stroke-linejoin="round" /><polygon points="110,102 134,114 134,86 110,74" fill="#ffffff" stroke="#1f2933" stroke-width="1.5" stroke-linejoin="round" /><polygon points="110,74 134,86 110,98 86,86" fill="#e5e7eb" stroke="#1f2933" stroke-width="1.5" stroke-linejoin="round" /><polygon points="158,126 134,138 134,110 158,98" fill="#f3f4f6" stroke="#1f2933" stroke-width="1.5" stroke-linejoin="round" /><polygon points="134,114 158,126 158,98 134,86" fill="#ffffff" stroke="#1f2933" stroke-width="1.5" stroke-linejoin="round" /><polygon points="134,86 158,98 134,110 110,98" fill="#e5e7eb" stroke="#1f2933" stroke-width="1.5" stroke-linejoin="round" /></svg>
