<svg xmlns="http://www.w3.org/2000/svg" viewBox="0 0 320 320" width="320" height="320" role="img" font-family="'Segoe UI', system-ui, -apple-system, sans-serif"><rect x="0" y="0" width="320" height="320" fill="#ffffff" /><rect x="20" y="20" width="84" height="84" fill="#ffffff" stroke="#d7dee7" stroke-width="1.5" rx="6" /><circle cx="62" cy="62" r="17.14" fill="none" stroke="#1f2933" stroke-width="2" stroke-linejoin="round" /><rect x="118" y="20" width="84" height="84" fill="#ffffff" stroke="#d7dee7" stroke-width="1.5" rx="6" /><rect x="142.86" y="44.86" width="34.27" height="34.27" fill="none" stroke="#1f2933" stroke-width="2" stroke-linejoin="round" rx="2" /><rect x="216" y="20" width="84" height="84" fill="#ffffff" stroke="#d7dee7" stroke-width="1.5" rx="6" /><polygon points="258,44.86 275.14,79.14 240.86,79.14" fill="none" stroke="#1f2933" stroke-width="2" stroke-linejoin="round" /><rect x="20" y="118" width="84" height="84" fill="#ffffff" stroke="#d7dee7" stroke-width="1.5" rx="6" /><circle cx="62" cy="160" r="24.28" fill="none" stroke="#1f2933" stroke-width="2" stroke-linejoin="round" /><rect x="118" y="118" width="84" height="84" fill="#ffffff" stroke="#d7dee7" stroke-width="1.5" rx="6" /><rect x="135.72" y="135.72" width="48.55" height="48.55" fill="none" stroke="#1f2933" stroke-width="2" stroke-linejoin="round" rx="2" /><rect x="216" y="118" width="84" height="84" fill="#ffffff" stroke="#d7dee7" stroke-width="1.5" rx="6" /><polygon points="258,135.72 282.28,184.28 233.72,184.28" fill="none" stroke="#1f2933" stroke-width="2" stroke-linejoin="round" /><rect x="20" y="216" width="84" height="84" fill="#ffffff" stroke="#d7dee7" stroke-width="1.5" rx="6" /><circle cx="62" cy="258" r="31.42" fill="none" stroke="#1f2933" stroke-width="2" stroke-linejoin="round" /><rect x="118" y="216" width="84" height="84" fill="#ffffff" stroke="#d7dee7" stroke-width="1.5" rx="6" /><rect x="128.58" y="226.58" width="62.83" height="62.83" fill="none" stroke="#1f2933" stroke-width="2" stroke-linejoin="round" rx="2" /><rect x="216" y="216" width="84" height="84" fill="#eef2ff" stroke="#2563eb" stroke-width="2" stroke-dasharray="6 4" rx="6" /><text x="258" y="258" text-anchor="middle" dominant-baseline="middle" font-size="35.28" font-weight="700" fill="#2563eb">?</text></svg>
